Coordinates
version=1
nRows=29
nColumns=24
inDegrees=yes

Units are S.I. units (second, meters, Newtons, ...)
Angles are in degrees.

endheader
time	pelvis_tilt	pelvis_list	pelvis_rotation	pelvis_tx	pelvis_ty	pelvis_tz	hip_flexion_r	hip_adduction_r	hip_rotation_r	knee_angle_r	ankle_angle_r	subtalar_angle_r	mtp_angle_r	hip_flexion_l	hip_adduction_l	hip_rotation_l	knee_angle_l	ankle_angle_l	subtalar_angle_l	mtp_angle_l	lumbar_extension	lumbar_bending	lumbar_rotation
      0.48800000	     -4.51675521	      0.65218350	      5.22794679	     -0.80382181	      1.01311792	      0.32137143	     24.79697262	     -0.07552321	     -8.08103105	      1.99024055	      0.22384615	     -1.79413412	      7.57426846	     -6.50156277	      4.87824341	      7.97367033	    -13.45803604	     13.27353612	     -7.98377129	     -3.75771869	     -3.30047638	     -4.02703003	     -4.60810774
      0.49216667	     -4.54730929	      0.55751378	      5.26808080	     -0.79801488	      1.01239137	      0.32150303	     24.89815887	      0.07823476	     -7.92144783	      1.61594744	      0.14255897	     -1.95258476	      7.60106022	     -6.47857593	      4.76542956	      7.89984527	    -14.14102103	     13.43078982	     -7.79081014	     -3.73572203	     -3.20923161	     -3.88581167	     -4.56769782
      0.49633333	     -4.55477644	      0.45836989	      5.29765482	     -0.79217616	      1.01171443	      0.32164234	     24.97641236	      0.24138751	     -7.70262491	      1.18062250	     -0.04385187	     -2.28005325	      7.65484461	     -6.46226313	      4.64394913	      7.77141091	    -14.85983554	     13.56865743	     -7.56218822	     -3.69031306	     -3.14920715	     -3.73962278	     -4.53938083
      0.50050000	     -4.54106536	      0.34494486	      5.32638344	     -0.78627953	      1.01109667	      0.32176959	     25.03008562	      0.41951855	     -7.46818113	      0.69420445	     -0.29080658	     -2.68162227	      7.73387155	     -6.44895622	      4.50877983	      7.65159374	    -15.61997384	     13.66629323	     -7.35971100	     -3.61957701	     -3.10367794	     -3.57042390	     -4.51092284
      0.50466667	     -4.51126802	      0.24596079	      5.34957443	     -0.78037793	      1.01053123	      0.32190895	     25.07311240	      0.58509202	     -7.20086781	      0.14850761	     -0.60308958	     -3.17916479	      7.87121438	     -6.42989663	      4.38616652	      7.49788602	    -16.42446124	     13.73219158	     -7.12949333	     -3.49231734	     -3.07851188	     -3.44021334	     -4.48248596
      0.50883333	     -4.46655370	      0.11729831	      5.37721155	     -0.77442600	      1.01002354	      0.32203270	     25.09581008	      0.77947819	     -6.92784749	     -0.42988665	     -0.97541217	     -3.72991515	      8.02591550	     -6.40239277	      4.23019288	      7.34389454	    -17.26998518	     13.77790016	     -6.90616786	     -3.33543784	     -3.06245774	     -3.24902438	     -4.45775066
      0.51300000	     -4.46875321	     -0.02123497	      5.40155410	     -0.76842057	      1.00946329	      0.32214041	     25.17777706	      0.97579405	     -6.65543600	     -1.06692886	     -1.35855340	     -4.26093399	      8.15386684	     -6.30756644	      4.07265575	      7.20098977	    -18.15138191	     13.75653975	     -6.74436671	     -3.19303295	     -2.97062580	     -3.02533226	     -4.43557917
      0.51716667	     -4.35208340	     -0.16022164	      5.44197675	     -0.76240345	      1.00912165	      0.32224805	     25.11947745	      1.18031072	     -6.40066959	     -1.69998733	     -1.87219616	     -4.94600462	     10.00994275	     -6.31026041	      3.88784077	      6.99510235	    -19.07694430	     13.70516313	     -6.46450022	     -1.01481194	     -3.03402164	     -2.81975608	     -4.37753581
      0.52133333	     -4.33581637	     -0.26962781	      5.45212712	     -0.75639189	      1.00864147	      0.32240646	     25.18806622	      1.35680979	     -6.05866456	     -2.40195323	     -2.34582501	     -5.61105335	     10.02988785	     -6.18441299	      3.75546099	      6.79763299	    -20.05002378	     13.59612087	     -6.30382450	     -0.94750983	     -2.97148217	     -2.66209938	     -4.38557024
      0.52550000	     -4.26166421	     -0.41235669	      5.47566970	     -0.75031255	      1.00830980	      0.32254614	     25.17584901	      1.56838142	     -5.74959834	     -3.08698021	     -2.88144281	     -6.32377832	     10.06560328	     -6.09714704	      3.56946215	      6.56315688	    -21.05277603	     13.46426975	     -6.05399546	     -0.82225965	     -2.96874318	     -2.44286065	     -4.36010876
      0.52966667	     -4.19022554	     -0.54998459	      5.49953128	     -0.74421924	      1.00800134	      0.32270631	     25.16925986	      1.77493437	     -5.43973307	     -3.79612982	     -3.42171497	     -7.04155963	     10.11181313	     -5.98235637	      3.38340320	      6.31024478	    -22.09886938	     13.28021093	     -5.80315760	     -0.64064739	     -2.95987057	     -2.23586620	     -4.33644326
      0.53383333	     -4.09445651	     -0.69255176	      5.52309546	     -0.73810463	      1.00776918	      0.32288538	     25.13162255	      1.98981801	     -5.13394379	     -4.50914801	     -3.97896096	     -7.76808041	     10.16155718	     -5.86847969	      3.18011147	      6.02506473	    -23.18116240	     13.03015729	     -5.54104100	     -0.40116069	     -2.97817671	     -2.01766243	     -4.31161738
      0.53800000	     -3.98808763	     -0.84642680	      5.56306165	     -0.73194927	      1.00760754	      0.32304987	     25.07210826	      2.20936245	     -4.88257652	     -5.21256895	     -4.56044462	     -8.46627321	     10.79898347	     -5.74856347	      2.95772130	      5.76334166	    -24.27750914	     12.60317253	     -5.37190078	      2.80958835	     -2.99462361	     -1.78297274	     -4.26193225
      0.54216667	     -3.91354380	     -0.97210656	      5.57767345	     -0.72582238	      1.00742344	      0.32329274	     25.06906570	      2.40757831	     -4.58745125	     -5.98136517	     -5.01724851	     -9.10242112	     10.78730636	     -5.55674446	      2.75185014	      5.39462706	    -25.43555298	     12.22293117	     -5.06370475	      2.90037861	     -2.99556142	     -1.60300723	     -4.26346839
      0.54633333	     -3.81853397	     -1.11023332	      5.60196261	     -0.71965927	      1.00732164	      0.32353322	     25.02859198	      2.61722702	     -4.32317416	     -6.72592617	     -5.50142141	     -9.73840842	     10.76902718	     -5.36863301	      2.52337209	      5.04064873	    -26.61503819	     11.77448900	     -4.78483664	      3.05979185	     -3.00550655	     -1.39450263	     -4.23519337
      0.55050000	     -3.68696862	     -1.26224145	      5.63184692	     -0.71347742	      1.00733385	      0.32379821	     24.93541442	      2.84497078	     -4.07376414	     -7.45282666	     -5.95225015	    -10.36652030	     10.73919971	     -5.19256166	      2.26087753	      4.65925933	    -27.82838600	     11.22477946	     -4.50007123	      3.32062257	     -3.05956697	     -1.17368775	     -4.20196302
      0.55466667	     -3.56651494	     -1.40434347	      5.65957277	     -0.70729090	      1.00735969	      0.32409822	     24.85559844	      3.06265086	     -3.84028479	     -8.19523458	     -6.33106026	    -10.94322886	     10.69268208	     -4.97963705	      1.99608039	      4.25152940	    -29.06864533	     10.60764396	     -4.20761277	      3.70764722	     -3.09596564	     -0.97426340	     -4.16354402
      0.55883333	     -3.43211460	     -1.55522429	      5.68638803	     -0.70109382	      1.00746754	      0.32441678	     24.75004499	      3.29111107	     -3.62048762	     -8.92291855	     -6.66960125	    -11.48365007	     10.61712850	     -4.75577396	      1.70691091	      3.82415082	    -30.33733748	      9.90302170	     -3.92886699	      4.26289155	     -3.15073978	     -0.75531541	     -4.12496362
      0.56300000	     -3.22947489	     -1.70050259	      5.71661245	     -0.69487934	      1.00773995	      0.32473550	     24.56414611	      3.51684926	     -3.44190131	     -9.66115986	     -6.79164419	    -11.87122435	      9.90748449	     -4.60231585	      1.41302091	      3.42667748	    -31.56995547	      8.89327546	     -3.85444119	      9.17278089	     -3.30111921	     -0.53600472	     -4.09509479
      0.56716667	     -3.13959245	     -1.84098066	      5.75152092	     -0.68869589	      1.00786262	      0.32507328	     24.52007228	      3.71404537	     -3.35732100	    -10.44044272	     -6.91704692	    -12.12190988	      9.88889680	     -4.27401091	      1.11675503	      2.99184125	    -32.90347627	      8.00715940	     -3.60146200	      9.25217786	     -3.29137148	     -0.34911517	     -4.05973546
      0.57133333	     -2.95406098	     -1.99379277	      5.78915069	     -0.68248706	      1.00820054	      0.32542780	     24.33913177	      3.93818600	     -3.25783472	    -11.16394801	     -6.92768982	    -12.35127488	      9.87106907	     -4.03738095	      0.78692697	      2.56246439	    -34.22115091	      6.97243838	     -3.42186400	      9.31821407	     -3.40859807	     -0.13703564	     -4.03192399
      0.57550000	     -2.81449235	     -2.13936338	      5.79724420	     -0.67630653	      1.00846971	      0.32587648	     24.20520006	      4.17199746	     -3.08927478	    -11.88035729	     -6.99182843	    -12.75756792	      9.77933821	     -3.71516048	      0.44750624	      2.06153061	    -35.59305932	      5.94450724	     -3.19891319	      9.64731601	     -3.46782722	      0.06145641	     -3.94684893
      0.57966667	     -2.61606576	     -2.29057653	      5.85325804	     -0.67012101	      1.00891317	      0.32623198	     23.99008669	      4.38518927	     -3.08020929	    -12.57637487	     -6.85320414	    -12.91276467	      9.75887259	     -3.43562394	      0.09091400	      1.63396381	    -36.95948291	      4.75099781	     -3.04459585	      9.71600698	     -3.59807127	      0.27886612	     -3.92710932
      0.58383333	     -2.43677901	     -2.45796425	      5.87855233	     -0.66393253	      1.00935255	      0.32667789	     23.77560180	      4.63463528	     -2.99542462	    -13.23513428	     -6.68087326	    -13.04599547	      9.71994135	     -3.11360123	     -0.29392274	      1.18023421	    -38.34224467	      3.48000844	     -2.91442028	      9.83888808	     -3.70909256	      0.48634518	     -3.89085574
      0.58800000	     -2.27175519	     -2.61911128	      5.90027472	     -0.65777638	      1.00979763	      0.32713592	     23.57056232	      4.87611265	     -2.93898404	    -13.88597512	     -6.45903157	    -13.16852763	      9.66274550	     -2.74930494	     -0.68125868	      0.72202268	    -39.74451069	      2.15140035	     -2.81805597	     10.00371450	     -3.80773703	      0.68796904	     -3.83654775
      0.59216667	     -2.09479979	     -2.76948243	      5.92348796	     -0.65166440	      1.01028911	      0.32758937	     23.34518339	      5.10257220	     -2.93569035	    -14.53041876	     -6.10252651	    -13.20066054	      7.68878433	     -2.37458204	     -1.06858752	      0.26831489	    -41.14093054	      0.61345724	     -2.86498738	     15.28819179	     -3.92861392	      0.89453579	     -3.75926070
      0.59633333	     -1.91152698	     -2.94736939	      5.95297912	     -0.64554940	      1.01083163	      0.32806198	     23.07035648	      5.36423443	     -2.91121533	    -15.07722846	     -5.81441863	    -13.29908258	      7.69699465	     -1.97720502	     -1.50032825	     -0.17436149	    -42.56928239	     -0.80950497	     -2.76107566	     15.27032452	     -4.04347000	      1.12311544	     -3.71293254
      0.60050000	     -1.74436933	     -3.09715439	      5.95648396	     -0.63950070	      1.01136336	      0.32853857	     22.81865487	      5.59497933	     -2.91737309	    -15.64372873	     -5.45077275	    -13.28193383	      7.68738069	     -1.55063624	     -1.88791864	     -0.59402176	    -43.98502441	     -2.35401520	     -2.88545465	     15.25790960	     -4.16552594	      1.31711601	     -3.62269939
      0.60466667	     -1.57813611	     -3.26023270	      5.96989895	     -0.63347255	      1.01192324	      0.32901756	     22.53678220	      5.83898232	     -2.94006497	    -16.14267357	     -5.06305774	    -13.25625860	      7.66507163	     -1.09864981	     -2.30041406	     -0.99051301	    -45.40726726	     -3.88959480	     -2.95547647	     15.23268210	     -4.27706070	      1.52645471	     -3.54735112
